<svg xmlns="http://www.w3.org/2000/svg" width="472" height="236" viewBox="0 0 472 236" role="img" aria-label="政策发布会现场">
  <defs>
    <linearGradient id="room" x1="0" x2="1" y1="0" y2="1">
      <stop offset="0" stop-color="#7c2d12"/>
      <stop offset="1" stop-color="#f59e0b"/>
    </linearGradient>
    <filter id="blur"><feGaussianBlur stdDeviation="7"/></filter>
  </defs>
  <rect width="472" height="236" fill="url(#room)"/>
  <g opacity=".32" filter="url(#blur)">
    <circle cx="92" cy="80" r="28" fill="#fff7ed"/>
    <circle cx="178" cy="72" r="22" fill="#fff7ed"/>
    <circle cx="270" cy="84" r="31" fill="#fff7ed"/>
    <circle cx="363" cy="76" r="25" fill="#fff7ed"/>
  </g>
  <rect x="42" y="54" width="388" height="86" rx="10" fill="#fffbeb" opacity=".18"/>
  <rect x="72" y="126" width="328" height="50" rx="12" fill="#431407" opacity=".32"/>
  <path d="M116 98l23 87" stroke="#111827" stroke-width="12" stroke-linecap="round"/>
  <ellipse cx="111" cy="85" rx="34" ry="26" transform="rotate(-16 111 85)" fill="#111827"/>
  <ellipse cx="111" cy="85" rx="24" ry="17" transform="rotate(-16 111 85)" fill="#6b7280"/>
  <path d="M85 80c20 8 39 3 55-14M83 92c24 9 47 3 66-16M91 106c20 5 41 0 58-14" stroke="#d1d5db" stroke-width="4" stroke-linecap="round"/>
  <rect x="198" y="80" width="172" height="9" rx="4" fill="#fde68a"/>
  <rect x="198" y="102" width="134" height="8" rx="4" fill="#fef3c7"/>
  <rect x="198" y="123" width="188" height="8" rx="4" fill="#fed7aa"/>
</svg>
