<svg xmlns="http://www.w3.org/2000/svg" width="472" height="236" viewBox="0 0 472 236" role="img" aria-label="外卖骑手城市道路">
  <defs>
    <linearGradient id="citySky" x1="0" x2="1" y1="0" y2="1">
      <stop offset="0" stop-color="#e0f2fe"/>
      <stop offset="1" stop-color="#fef3c7"/>
    </linearGradient>
  </defs>
  <rect width="472" height="236" fill="url(#citySky)"/>
  <g opacity=".55">
    <rect x="24" y="70" width="52" height="105" fill="#b6c8d2"/>
    <rect x="88" y="42" width="72" height="133" fill="#cbd5e1"/>
    <rect x="330" y="55" width="62" height="120" fill="#cbd5e1"/>
    <rect x="402" y="82" width="42" height="93" fill="#b6c8d2"/>
  </g>
  <rect x="0" y="176" width="472" height="60" fill="#2f3d36"/>
  <path d="M0 204h472" stroke="#f8fafc" stroke-width="5" stroke-dasharray="36 24" opacity=".75"/>
  <circle cx="244" cy="190" r="25" fill="#111827"/>
  <circle cx="352" cy="190" r="25" fill="#111827"/>
  <circle cx="244" cy="190" r="12" fill="#f8fafc"/>
  <circle cx="352" cy="190" r="12" fill="#f8fafc"/>
  <path d="M246 188l45-44 62 46M290 145l-18 45" fill="none" stroke="#f59e0b" stroke-width="11" stroke-linecap="round" stroke-linejoin="round"/>
  <path d="M298 102c-10 20-4 40 16 59" fill="none" stroke="#111827" stroke-width="13" stroke-linecap="round"/>
  <circle cx="300" cy="82" r="22" fill="#fed7aa"/>
  <path d="M276 78c6-22 28-32 53-16 2 13-4 21-13 25-11-7-25-9-40-9z" fill="#f59e0b"/>
  <rect x="328" y="91" width="54" height="64" rx="8" fill="#fbbf24"/>
  <rect x="341" y="105" width="28" height="28" rx="4" fill="#111827" opacity=".75"/>
  <rect x="270" y="108" width="28" height="44" rx="5" fill="#0f172a"/>
  <path d="M296 115l-26 10" stroke="#fed7aa" stroke-width="12" stroke-linecap="round"/>
</svg>
